# xmcd
#
# Track frame offsets:
#	150
#	12526
#	26976
#	40794
#	53885
#	69531
#	86179
#	107267
#	126504
#	138878
#	158470
#	172584
#	190930
#
# Disc length: 2728 seconds
#
# Revision: 1
# Processed by: cddbd v1.5.2PL0 Copyright (c) Steve Scherf et al.
# Submitted via: audiograbber 1.83.01
#
DISCID=a60aa60d
DTITLE=Laura Cheadle - Falling In
DYEAR=2006
DGENRE=Soul
TTITLE0=Bright and Beautiful
TTITLE1=Falling In
TTITLE2=Just Right
TTITLE3=Maybe One Day
TTITLE4=Lay Me Down
TTITLE5=Perfect Design
TTITLE6=Love Map
TTITLE7=Replaying
TTITLE8=Wrapped up in You
TTITLE9=Midst of Your Mind
TTITLE10=Worth It
TTITLE11=Wasted Kisses
TTITLE12=Affection
EXTD=
EXTT0=
EXTT1=
EXTT2=
EXTT3=
EXTT4=
EXTT5=
EXTT6=
EXTT7=
EXTT8=
EXTT9=
EXTT10=
EXTT11=
EXTT12=Extra Track. 
PLAYORDER=
